<mxfile host="app.diagrams.net" agent="Mozilla/5.0 (Windows NT 10.0; Win64; x64) AppleWebKit/537.36 (KHTML, like Gecko) Chrome/131.0.0.0 Safari/537.36" version="25.0.3">
  <diagram name="Page-1" id="FH1MR2sCcTotlDIPuCfY">
    <mxGraphModel grid="1" page="1" gridSize="10" guides="1" tooltips="1" connect="1" arrows="1" fold="1" pageScale="1" pageWidth="827" pageHeight="1169" math="0" shadow="0">
      <root>
        <mxCell id="0" />
        <mxCell id="1" parent="0" />
        <mxCell id="SfMMA6HfbpEWTSWmI7vR-3" style="edgeStyle=orthogonalEdgeStyle;rounded=0;orthogonalLoop=1;jettySize=auto;html=1;entryX=0.5;entryY=0;entryDx=0;entryDy=0;" edge="1" parent="1" source="SfMMA6HfbpEWTSWmI7vR-1" target="SfMMA6HfbpEWTSWmI7vR-2">
          <mxGeometry relative="1" as="geometry" />
        </mxCell>
        <mxCell id="SfMMA6HfbpEWTSWmI7vR-1" value="START" style="ellipse;whiteSpace=wrap;html=1;" vertex="1" parent="1">
          <mxGeometry x="320" y="160" width="120" height="80" as="geometry" />
        </mxCell>
        <mxCell id="uYeX9CvBPa1y4T1nxtuq-2" style="edgeStyle=orthogonalEdgeStyle;rounded=0;orthogonalLoop=1;jettySize=auto;html=1;" edge="1" parent="1" source="SfMMA6HfbpEWTSWmI7vR-2" target="uYeX9CvBPa1y4T1nxtuq-1">
          <mxGeometry relative="1" as="geometry" />
        </mxCell>
        <mxCell id="uYeX9CvBPa1y4T1nxtuq-3" style="edgeStyle=orthogonalEdgeStyle;rounded=0;orthogonalLoop=1;jettySize=auto;html=1;" edge="1" parent="1" source="SfMMA6HfbpEWTSWmI7vR-2" target="uYeX9CvBPa1y4T1nxtuq-6">
          <mxGeometry relative="1" as="geometry">
            <mxPoint x="650" y="360" as="targetPoint" />
            <Array as="points">
              <mxPoint x="640" y="310" />
              <mxPoint x="640" y="310" />
            </Array>
          </mxGeometry>
        </mxCell>
        <mxCell id="SfMMA6HfbpEWTSWmI7vR-2" value="INPUT a, b&lt;div&gt;i=1&lt;/div&gt;" style="shape=parallelogram;perimeter=parallelogramPerimeter;whiteSpace=wrap;html=1;fixedSize=1;" vertex="1" parent="1">
          <mxGeometry x="320" y="280" width="120" height="60" as="geometry" />
        </mxCell>
        <mxCell id="uYeX9CvBPa1y4T1nxtuq-4" style="edgeStyle=orthogonalEdgeStyle;rounded=0;orthogonalLoop=1;jettySize=auto;html=1;" edge="1" parent="1">
          <mxGeometry relative="1" as="geometry">
            <mxPoint x="380" y="440" as="targetPoint" />
            <mxPoint x="230" y="410" as="sourcePoint" />
            <Array as="points">
              <mxPoint x="230" y="440" />
              <mxPoint x="360" y="440" />
            </Array>
          </mxGeometry>
        </mxCell>
        <mxCell id="uYeX9CvBPa1y4T1nxtuq-8" style="edgeStyle=orthogonalEdgeStyle;rounded=0;orthogonalLoop=1;jettySize=auto;html=1;entryX=0;entryY=0.5;entryDx=0;entryDy=0;" edge="1" parent="1" source="uYeX9CvBPa1y4T1nxtuq-1">
          <mxGeometry relative="1" as="geometry">
            <mxPoint x="200" y="530" as="targetPoint" />
            <Array as="points">
              <mxPoint x="161" y="390" />
              <mxPoint x="161" y="530" />
            </Array>
          </mxGeometry>
        </mxCell>
        <mxCell id="uYeX9CvBPa1y4T1nxtuq-1" value="a%i=0&lt;div&gt;và i&amp;lt;=a&lt;/div&gt;" style="rhombus;whiteSpace=wrap;html=1;" vertex="1" parent="1">
          <mxGeometry x="190" y="350" width="80" height="80" as="geometry" />
        </mxCell>
        <mxCell id="uYeX9CvBPa1y4T1nxtuq-7" style="edgeStyle=orthogonalEdgeStyle;rounded=0;orthogonalLoop=1;jettySize=auto;html=1;entryX=1;entryY=0.5;entryDx=0;entryDy=0;" edge="1" parent="1" source="uYeX9CvBPa1y4T1nxtuq-5" target="uYeX9CvBPa1y4T1nxtuq-1">
          <mxGeometry relative="1" as="geometry">
            <mxPoint x="380" y="350" as="targetPoint" />
            <Array as="points">
              <mxPoint x="440" y="390" />
            </Array>
          </mxGeometry>
        </mxCell>
        <mxCell id="uYeX9CvBPa1y4T1nxtuq-17" style="edgeStyle=orthogonalEdgeStyle;rounded=0;orthogonalLoop=1;jettySize=auto;html=1;exitX=0.75;exitY=0;exitDx=0;exitDy=0;entryX=0;entryY=0.5;entryDx=0;entryDy=0;" edge="1" parent="1" source="uYeX9CvBPa1y4T1nxtuq-5" target="uYeX9CvBPa1y4T1nxtuq-6">
          <mxGeometry relative="1" as="geometry" />
        </mxCell>
        <mxCell id="uYeX9CvBPa1y4T1nxtuq-5" value="i++" style="rounded=0;whiteSpace=wrap;html=1;" vertex="1" parent="1">
          <mxGeometry x="380" y="410" width="120" height="60" as="geometry" />
        </mxCell>
        <mxCell id="uYeX9CvBPa1y4T1nxtuq-16" style="edgeStyle=orthogonalEdgeStyle;rounded=0;orthogonalLoop=1;jettySize=auto;html=1;entryX=1.028;entryY=0.622;entryDx=0;entryDy=0;entryPerimeter=0;" edge="1" parent="1" source="uYeX9CvBPa1y4T1nxtuq-6" target="uYeX9CvBPa1y4T1nxtuq-5">
          <mxGeometry relative="1" as="geometry">
            <mxPoint x="600" y="520" as="targetPoint" />
            <Array as="points">
              <mxPoint x="640" y="447" />
            </Array>
          </mxGeometry>
        </mxCell>
        <mxCell id="uYeX9CvBPa1y4T1nxtuq-18" style="edgeStyle=orthogonalEdgeStyle;rounded=0;orthogonalLoop=1;jettySize=auto;html=1;" edge="1" parent="1">
          <mxGeometry relative="1" as="geometry">
            <mxPoint x="705" y="530" as="targetPoint" />
            <mxPoint x="680" y="390" as="sourcePoint" />
            <Array as="points">
              <mxPoint x="680" y="391" />
              <mxPoint x="726" y="391" />
              <mxPoint x="726" y="530" />
            </Array>
          </mxGeometry>
        </mxCell>
        <mxCell id="uYeX9CvBPa1y4T1nxtuq-6" value="b%i=0&amp;nbsp;&lt;div&gt;và i&amp;lt;=b&lt;/div&gt;" style="rhombus;whiteSpace=wrap;html=1;" vertex="1" parent="1">
          <mxGeometry x="600" y="350" width="80" height="80" as="geometry" />
        </mxCell>
        <mxCell id="uYeX9CvBPa1y4T1nxtuq-14" style="edgeStyle=orthogonalEdgeStyle;rounded=0;orthogonalLoop=1;jettySize=auto;html=1;entryX=0;entryY=0.5;entryDx=0;entryDy=0;exitX=1;exitY=0.5;exitDx=0;exitDy=0;" edge="1" parent="1" source="uYeX9CvBPa1y4T1nxtuq-42" target="uYeX9CvBPa1y4T1nxtuq-13">
          <mxGeometry relative="1" as="geometry">
            <mxPoint x="290" y="525" as="sourcePoint" />
            <Array as="points">
              <mxPoint x="300" y="525" />
              <mxPoint x="310" y="525" />
              <mxPoint x="310" y="526" />
              <mxPoint x="311" y="526" />
              <mxPoint x="311" y="556" />
              <mxPoint x="295" y="556" />
              <mxPoint x="295" y="615" />
            </Array>
          </mxGeometry>
        </mxCell>
        <mxCell id="uYeX9CvBPa1y4T1nxtuq-30" style="edgeStyle=orthogonalEdgeStyle;rounded=0;orthogonalLoop=1;jettySize=auto;html=1;entryX=0;entryY=0.5;entryDx=0;entryDy=0;" edge="1" parent="1" source="uYeX9CvBPa1y4T1nxtuq-13" target="uYeX9CvBPa1y4T1nxtuq-29">
          <mxGeometry relative="1" as="geometry">
            <Array as="points">
              <mxPoint x="455" y="615" />
              <mxPoint x="455" y="680" />
            </Array>
          </mxGeometry>
        </mxCell>
        <mxCell id="uYeX9CvBPa1y4T1nxtuq-13" value="a=i1*i2*i3..." style="rounded=0;whiteSpace=wrap;html=1;" vertex="1" parent="1">
          <mxGeometry x="315" y="585" width="120" height="60" as="geometry" />
        </mxCell>
        <mxCell id="uYeX9CvBPa1y4T1nxtuq-20" value="FALSE" style="text;html=1;align=center;verticalAlign=middle;resizable=0;points=[];autosize=1;strokeColor=none;fillColor=none;" vertex="1" parent="1">
          <mxGeometry x="130" y="360" width="60" height="30" as="geometry" />
        </mxCell>
        <mxCell id="uYeX9CvBPa1y4T1nxtuq-21" value="TRUE" style="text;html=1;align=center;verticalAlign=middle;resizable=0;points=[];autosize=1;strokeColor=none;fillColor=none;" vertex="1" parent="1">
          <mxGeometry x="255" y="410" width="60" height="30" as="geometry" />
        </mxCell>
        <mxCell id="uYeX9CvBPa1y4T1nxtuq-22" value="FALSE" style="text;html=1;align=center;verticalAlign=middle;resizable=0;points=[];autosize=1;strokeColor=none;fillColor=none;" vertex="1" parent="1">
          <mxGeometry x="675" y="360" width="60" height="30" as="geometry" />
        </mxCell>
        <mxCell id="uYeX9CvBPa1y4T1nxtuq-23" value="TRUE" style="text;html=1;align=center;verticalAlign=middle;resizable=0;points=[];autosize=1;strokeColor=none;fillColor=none;" vertex="1" parent="1">
          <mxGeometry x="565" y="420" width="60" height="30" as="geometry" />
        </mxCell>
        <mxCell id="uYeX9CvBPa1y4T1nxtuq-27" style="edgeStyle=orthogonalEdgeStyle;rounded=0;orthogonalLoop=1;jettySize=auto;html=1;" edge="1" parent="1" target="uYeX9CvBPa1y4T1nxtuq-28">
          <mxGeometry relative="1" as="geometry">
            <mxPoint x="550" y="530" as="targetPoint" />
            <mxPoint x="600" y="530" as="sourcePoint" />
          </mxGeometry>
        </mxCell>
        <mxCell id="uYeX9CvBPa1y4T1nxtuq-31" style="edgeStyle=orthogonalEdgeStyle;rounded=0;orthogonalLoop=1;jettySize=auto;html=1;entryX=0.5;entryY=0;entryDx=0;entryDy=0;" edge="1" parent="1" source="uYeX9CvBPa1y4T1nxtuq-28" target="uYeX9CvBPa1y4T1nxtuq-29">
          <mxGeometry relative="1" as="geometry" />
        </mxCell>
        <mxCell id="uYeX9CvBPa1y4T1nxtuq-28" value="b=i1*i2*i4...." style="rounded=0;whiteSpace=wrap;html=1;" vertex="1" parent="1">
          <mxGeometry x="420" y="500" width="120" height="60" as="geometry" />
        </mxCell>
        <mxCell id="uYeX9CvBPa1y4T1nxtuq-32" style="edgeStyle=orthogonalEdgeStyle;rounded=0;orthogonalLoop=1;jettySize=auto;html=1;" edge="1" parent="1" source="uYeX9CvBPa1y4T1nxtuq-29" target="uYeX9CvBPa1y4T1nxtuq-33">
          <mxGeometry relative="1" as="geometry">
            <mxPoint x="660" y="750" as="targetPoint" />
          </mxGeometry>
        </mxCell>
        <mxCell id="uYeX9CvBPa1y4T1nxtuq-36" style="edgeStyle=orthogonalEdgeStyle;rounded=0;orthogonalLoop=1;jettySize=auto;html=1;entryX=1;entryY=0.5;entryDx=0;entryDy=0;entryPerimeter=0;" edge="1" parent="1" source="uYeX9CvBPa1y4T1nxtuq-29" target="uYeX9CvBPa1y4T1nxtuq-39">
          <mxGeometry relative="1" as="geometry">
            <mxPoint x="380" y="710" as="targetPoint" />
            <Array as="points">
              <mxPoint x="430" y="720" />
              <mxPoint x="430" y="710" />
            </Array>
          </mxGeometry>
        </mxCell>
        <mxCell id="uYeX9CvBPa1y4T1nxtuq-29" value="a, b có cùng&amp;nbsp;&lt;div&gt;i1,i2&lt;/div&gt;" style="rhombus;whiteSpace=wrap;html=1;" vertex="1" parent="1">
          <mxGeometry x="470" y="630" width="120" height="90" as="geometry" />
        </mxCell>
        <mxCell id="uYeX9CvBPa1y4T1nxtuq-34" style="edgeStyle=orthogonalEdgeStyle;rounded=0;orthogonalLoop=1;jettySize=auto;html=1;exitX=1;exitY=0.5;exitDx=0;exitDy=0;exitPerimeter=0;entryX=1;entryY=0.5;entryDx=0;entryDy=0;" edge="1" parent="1" source="uYeX9CvBPa1y4T1nxtuq-33" target="uYeX9CvBPa1y4T1nxtuq-38">
          <mxGeometry relative="1" as="geometry">
            <mxPoint x="480" y="820" as="targetPoint" />
            <Array as="points">
              <mxPoint x="710" y="750" />
              <mxPoint x="710" y="820" />
              <mxPoint x="474" y="820" />
            </Array>
          </mxGeometry>
        </mxCell>
        <mxCell id="uYeX9CvBPa1y4T1nxtuq-33" value="BCNN của a, b là i1*i2" style="shape=or;whiteSpace=wrap;html=1;" vertex="1" parent="1">
          <mxGeometry x="630" y="710" width="60" height="80" as="geometry" />
        </mxCell>
        <mxCell id="uYeX9CvBPa1y4T1nxtuq-35" value="TRUE" style="text;html=1;align=center;verticalAlign=middle;whiteSpace=wrap;rounded=0;" vertex="1" parent="1">
          <mxGeometry x="600" y="680" width="60" height="30" as="geometry" />
        </mxCell>
        <mxCell id="uYeX9CvBPa1y4T1nxtuq-38" value="END" style="ellipse;whiteSpace=wrap;html=1;" vertex="1" parent="1">
          <mxGeometry x="315" y="810" width="120" height="80" as="geometry" />
        </mxCell>
        <mxCell id="uYeX9CvBPa1y4T1nxtuq-40" style="edgeStyle=orthogonalEdgeStyle;rounded=0;orthogonalLoop=1;jettySize=auto;html=1;entryX=0.5;entryY=0;entryDx=0;entryDy=0;" edge="1" parent="1" source="uYeX9CvBPa1y4T1nxtuq-39" target="uYeX9CvBPa1y4T1nxtuq-38">
          <mxGeometry relative="1" as="geometry" />
        </mxCell>
        <mxCell id="uYeX9CvBPa1y4T1nxtuq-39" value="a,b không có BCNN" style="shape=or;whiteSpace=wrap;html=1;" vertex="1" parent="1">
          <mxGeometry x="290" y="670" width="90" height="80" as="geometry" />
        </mxCell>
        <mxCell id="uYeX9CvBPa1y4T1nxtuq-41" value="FALSE" style="text;html=1;align=center;verticalAlign=middle;whiteSpace=wrap;rounded=0;" vertex="1" parent="1">
          <mxGeometry x="435" y="720" width="60" height="30" as="geometry" />
        </mxCell>
        <mxCell id="uYeX9CvBPa1y4T1nxtuq-42" value="LƯU&lt;div&gt;i1&lt;/div&gt;&lt;div&gt;i2&lt;/div&gt;&lt;div&gt;i3&lt;/div&gt;&lt;div&gt;....&lt;/div&gt;" style="shape=dataStorage;whiteSpace=wrap;html=1;fixedSize=1;" vertex="1" parent="1">
          <mxGeometry x="200" y="490" width="100" height="80" as="geometry" />
        </mxCell>
        <mxCell id="uYeX9CvBPa1y4T1nxtuq-44" value="LƯU&lt;div&gt;i1&lt;/div&gt;&lt;div&gt;i2&lt;/div&gt;&lt;div&gt;i4&lt;/div&gt;&lt;div&gt;....&lt;/div&gt;" style="shape=dataStorage;whiteSpace=wrap;html=1;fixedSize=1;" vertex="1" parent="1">
          <mxGeometry x="600" y="490" width="100" height="80" as="geometry" />
        </mxCell>
      </root>
    </mxGraphModel>
  </diagram>
</mxfile>
